<svg width="156" height="54" viewBox="0 0 156 54" fill="none" xmlns="http://www.w3.org/2000/svg">
<path fill-rule="evenodd" clip-rule="evenodd" d="M47.2299 6.09455H49.5956C47.6928 4.82596 44.17 5.17692 42.0325 5.59008L41.6634 5.67706C41.285 5.76517 40.9121 5.86066 40.5392 5.96952L40.1326 6.09455C35.127 7.59166 31.2562 10.6898 28.2948 14.9657L28.1037 15.2445C27.8742 15.5728 27.6548 15.8984 27.4687 16.2534C27.3197 16.745 27.2871 16.9763 27.4693 17.457C28.8018 19.7881 29.4479 22.3098 29.7932 24.956L29.8345 25.299H30.1128C30.5101 22.4377 31.9777 19.488 33.4343 17.0254L33.7311 16.5318C34.6084 15.0247 35.5965 13.6042 36.6535 12.2177C39.0213 9.25283 42.7008 6.81556 46.5341 6.37287L46.1995 7.1274L46.0557 7.45139C45.8017 8.02459 45.5471 8.5975 45.2895 9.16908C44.4991 10.92 43.72 12.6754 42.9506 14.4356C42.8947 14.5636 42.8388 14.6916 42.7829 14.8196C42.2734 15.9864 41.764 17.1531 41.2337 18.3107L41.0991 18.604C41.0766 18.6532 41.0541 18.7025 41.0316 18.7517C40.8888 19.0643 40.7459 19.3768 40.6022 19.689L40.3702 20.184L40.1619 20.6387C39.9595 21.0728 39.8562 21.3667 39.8296 21.847C39.8858 22.7373 40.3776 23.4054 40.9675 24.0466C42.4919 25.3449 44.2616 25.8887 46.2394 25.8937L46.6732 25.8905C47.9704 25.9002 49.1155 25.7706 50.3436 25.3425C51.8379 24.7793 52.9685 23.9791 53.6651 22.5228C53.8662 21.9786 53.8534 21.4884 53.6544 20.948L53.4922 20.5675C53.3914 20.3302 53.2905 20.093 53.1886 19.8562C53.1082 19.6697 53.0279 19.4832 52.9477 19.2967L52.8175 18.9938C52.1032 17.3331 51.3915 15.6716 50.6961 14.003C49.6816 11.5676 48.6214 9.15544 47.5299 6.7534L47.2299 6.09455ZM47.0906 7.34707H46.8123C45.8494 9.57022 44.874 11.7872 43.8725 13.9933C43.8102 14.1304 43.7479 14.2675 43.6856 14.4046C42.9114 16.1085 42.1372 17.8125 41.3844 19.5259L41.1414 20.0805L40.9073 20.6084L40.7 21.0851C40.5969 21.3204 40.5525 21.4216 40.5134 21.5248C40.4839 21.6026 40.4574 21.6815 40.4108 21.82L40.5499 22.0983C42.2345 23.0065 44.0989 23.2705 45.9836 23.2551C46.2657 23.2507 46.5477 23.2464 46.8299 23.2451C46.9112 23.2449 46.9924 23.2448 47.0736 23.2447C47.7393 23.2443 48.4008 23.2438 49.0615 23.1475L49.4564 23.0725C49.7604 23.015 50.0631 22.9533 50.3658 22.8896L50.6914 22.8203C51.5285 22.653 52.3736 22.473 53.0746 21.9592C53.2747 21.5322 53.2437 21.3524 53.0947 20.9095C52.8404 20.4046 52.5871 19.9004 52.3717 19.3776C52.196 18.924 52.0201 18.472 51.8211 18.028C51.5 17.3339 51.1879 16.6363 50.8826 15.9352L50.7436 15.6153L50.4547 14.95C49.3513 12.4074 48.2322 9.87265 47.0906 7.34707Z" fill="#1D385D"/>
<path fill-rule="evenodd" clip-rule="evenodd" d="M9.35746 5.35087L8.8745 5.34659C7.59193 5.32999 6.18693 5.33412 5.08492 6.09459H7.23599L7.21329 6.15091C7.02484 6.61845 6.83639 7.08599 6.64754 7.55336L6.40413 8.15594C6.34538 8.30178 6.28678 8.4477 6.22819 8.59362C5.9312 9.33319 5.63417 10.0729 5.31674 10.8033C4.78296 12.0022 4.29129 13.2179 3.79931 14.4357C3.73906 14.5849 3.67887 14.7342 3.61869 14.8835C3.18274 15.9649 2.74683 17.0462 2.28474 18.116C2.20624 18.2974 2.12802 18.4789 2.0501 18.6606C1.94165 18.9137 1.83276 19.1666 1.72386 19.4194C1.69647 19.4808 1.66897 19.5419 1.64153 19.6029C1.36213 20.224 1.08921 20.8306 1.00123 21.5182C0.977934 22.5495 1.28417 23.1341 1.95126 23.8852C3.39245 25.3084 5.32627 25.9052 7.28378 25.9128L7.70654 25.9079C8.42461 25.9162 9.11658 25.9085 9.82413 25.7704C11.7725 25.2833 13.2294 24.5301 14.3278 22.7637C14.5773 22.1892 14.5597 21.7384 14.3665 21.143L14.1865 20.7333L13.9899 20.2792C13.8515 19.968 13.7143 19.6563 13.5781 19.3442L13.3799 18.8894C13.1898 18.4596 13.0032 18.0293 12.8232 17.5948C12.6379 17.1471 12.4486 16.7017 12.257 16.2569C11.8666 15.3519 11.4789 14.4458 11.0955 13.5376L10.7949 12.8253L10.3366 11.7394C9.62605 10.0505 8.89812 8.37337 8.13005 6.71155L7.9082 6.23375C8.22182 6.3268 8.53553 6.41955 8.8493 6.51208C10.0685 6.85197 11.1952 7.30866 12.3254 7.88523C17.9456 10.8375 21.4487 17.3147 23.3809 23.3187L23.5119 23.7335C24.4003 26.3813 24.6694 29.1235 24.6428 31.9127L24.6378 32.3529C24.624 34.7509 24.5762 37.124 24.2378 39.5004L24.1757 39.9112C23.8129 42.3167 23.2819 44.6703 22.4448 46.9476C22.2958 47.3376 22.1557 47.7246 22.0246 48.1218L22.1591 48.4001C23.2016 47.1524 24.072 45.8157 24.834 44.3681L24.9824 44.0861C25.7195 42.7062 26.4191 41.3425 26.9228 39.8509C27.0391 39.4993 27.1563 39.1482 27.2758 38.7978C27.3646 38.5384 27.4544 38.279 27.5442 38.0194C27.9886 36.7357 28.4348 35.4466 28.7683 34.1294L28.8812 33.6489C29.3301 31.9239 29.4689 30.2441 29.4768 28.464L29.4778 28.1258C29.4942 25.9668 29.2729 23.8993 28.714 21.8132L28.6039 21.4286C28.0443 19.4697 27.2371 17.6591 26.2251 15.9073C23.2648 10.9488 18.8201 7.31548 13.3474 5.90005L13.017 5.81627C11.7966 5.49679 10.6174 5.3738 9.35746 5.35087ZM7.5048 7.34711C7.74934 7.57462 7.90825 7.78935 8.04656 8.05479L8.15588 8.30432L8.30569 8.65392L8.62472 9.38888L8.83894 9.88687C8.97434 10.2056 9.10922 10.5245 9.24407 10.8435L9.61352 11.7111C9.80839 12.1686 10.0029 12.6262 10.197 13.0841C10.3241 13.4042 10.4472 13.7263 10.5649 14.0508C10.753 14.5721 10.9554 15.0713 11.1978 15.568C11.308 15.7889 11.421 16.0128 11.5354 16.2393L11.5357 16.2399L11.6125 16.3921C11.7832 16.7863 11.9551 17.1798 12.1272 17.5733L12.2505 17.8554C12.4202 18.2433 12.5898 18.6312 12.7597 19.019C12.8851 19.3053 13.0103 19.5918 13.1355 19.8782L13.251 20.1414C13.3231 20.3065 13.3944 20.4719 13.4654 20.6375C13.6174 21.1232 13.7404 21.611 13.8235 22.0979V22.0983C11.0457 23.3635 7.70462 23.6808 4.66901 23.0378C3.51869 22.7847 2.42367 22.3838 1.45492 21.8201L1.45491 21.82L1.45501 21.8194C1.73468 20.8707 2.10024 19.9643 2.48298 19.0604C2.61827 18.7561 2.75314 18.4516 2.88777 18.147L3.01203 17.8653C3.27623 17.2668 3.53331 16.667 3.76773 16.0552C3.8724 15.8144 3.9777 15.5739 4.0838 15.3337C4.44686 14.5106 4.79458 13.6807 5.1413 12.8502C5.25514 12.5775 5.36918 12.3049 5.48323 12.0323C5.78848 11.3023 6.09269 10.5718 6.39464 9.84037C6.75627 9.00549 7.12437 8.17368 7.5048 7.34711Z" fill="#1D385D"/>
<path d="M78.1865 24.9756V28.1396H66.9658V24.9756H78.1865ZM68.0645 16.1719V37.5H64.0361V16.1719H68.0645ZM81.1748 16.1719V37.5H77.1465V16.1719H81.1748ZM94.0215 19.4092L87.9424 37.5H83.6797L91.6484 16.1719H94.373L94.0215 19.4092ZM99.1045 37.5L92.9961 19.4092L92.6299 16.1719H95.3691L103.382 37.5H99.1045ZM98.8262 29.5752V32.7539H87.3857V29.5752H98.8262ZM112.405 37.793C111.204 37.793 110.125 37.5977 109.168 37.207C108.211 36.8164 107.396 36.2744 106.722 35.5811C106.058 34.8779 105.545 34.0625 105.184 33.1348C104.832 32.1973 104.656 31.1914 104.656 30.1172V29.5312C104.656 28.3105 104.832 27.2021 105.184 26.2061C105.535 25.2002 106.033 24.3359 106.678 23.6133C107.322 22.8906 108.094 22.334 108.992 21.9434C109.891 21.5527 110.882 21.3574 111.966 21.3574C113.089 21.3574 114.08 21.5479 114.939 21.9287C115.799 22.2998 116.517 22.8271 117.093 23.5107C117.669 24.1943 118.104 25.0146 118.396 25.9717C118.689 26.9189 118.836 27.9688 118.836 29.1211V30.7471H106.414V28.0811H115.027V27.7881C115.008 27.1729 114.891 26.6113 114.676 26.1035C114.461 25.5859 114.129 25.1758 113.68 24.873C113.23 24.5605 112.649 24.4043 111.937 24.4043C111.36 24.4043 110.857 24.5312 110.428 24.7852C110.008 25.0293 109.656 25.3809 109.373 25.8398C109.1 26.2891 108.895 26.8262 108.758 27.4512C108.621 28.0762 108.553 28.7695 108.553 29.5312V30.1172C108.553 30.7812 108.641 31.3965 108.816 31.9629C109.002 32.5293 109.271 33.0225 109.622 33.4424C109.983 33.8525 110.413 34.1748 110.911 34.4092C111.419 34.6338 111.995 34.7461 112.64 34.7461C113.45 34.7461 114.183 34.5898 114.837 34.2773C115.501 33.9551 116.077 33.4814 116.565 32.8564L118.514 34.8779C118.182 35.3662 117.732 35.835 117.166 36.2842C116.609 36.7334 115.936 37.0996 115.145 37.3828C114.354 37.6562 113.44 37.793 112.405 37.793ZM135.257 34.3359V37.5H124.534V34.3359H135.257ZM125.75 16.1719V37.5H121.722V16.1719H125.75ZM154.256 26.2939V27.3926C154.256 29.0039 154.041 30.4541 153.611 31.7432C153.182 33.0225 152.571 34.1113 151.78 35.0098C150.989 35.9082 150.047 36.5967 148.953 37.0752C147.859 37.5537 146.644 37.793 145.306 37.793C143.987 37.793 142.776 37.5537 141.673 37.0752C140.579 36.5967 139.632 35.9082 138.831 35.0098C138.03 34.1113 137.41 33.0225 136.971 31.7432C136.531 30.4541 136.312 29.0039 136.312 27.3926V26.2939C136.312 24.6729 136.531 23.2227 136.971 21.9434C137.41 20.6641 138.025 19.5752 138.816 18.6768C139.607 17.7686 140.55 17.0752 141.644 16.5967C142.747 16.1182 143.958 15.8789 145.276 15.8789C146.614 15.8789 147.83 16.1182 148.924 16.5967C150.018 17.0752 150.96 17.7686 151.751 18.6768C152.552 19.5752 153.167 20.6641 153.597 21.9434C154.036 23.2227 154.256 24.6729 154.256 26.2939ZM150.184 27.3926V26.2646C150.184 25.1025 150.076 24.082 149.861 23.2031C149.646 22.3145 149.329 21.5674 148.909 20.9619C148.489 20.3564 147.972 19.9023 147.356 19.5996C146.741 19.2871 146.048 19.1309 145.276 19.1309C144.495 19.1309 143.802 19.2871 143.196 19.5996C142.601 19.9023 142.093 20.3564 141.673 20.9619C141.253 21.5674 140.931 22.3145 140.706 23.2031C140.491 24.082 140.384 25.1025 140.384 26.2646V27.3926C140.384 28.5449 140.491 29.5654 140.706 30.4541C140.931 31.3428 141.253 32.0947 141.673 32.71C142.103 33.3154 142.62 33.7744 143.226 34.0869C143.831 34.3994 144.524 34.5557 145.306 34.5557C146.087 34.5557 146.78 34.3994 147.386 34.0869C147.991 33.7744 148.499 33.3154 148.909 32.71C149.329 32.0947 149.646 31.3428 149.861 30.4541C150.076 29.5654 150.184 28.5449 150.184 27.3926Z" fill="#1D385D"/>
</svg>
